<?xml version="1.0" encoding="UTF-8" standalone="no"?>
<!DOCTYPE svg PUBLIC "-//W3C//DTD SVG 1.1//EN" "http://www.w3.org/Graphics/SVG/1.1/DTD/svg11.dtd">
<svg width="100%" height="100%" viewBox="0 0 764 660" version="1.1" xmlns="http://www.w3.org/2000/svg" xmlns:xlink="http://www.w3.org/1999/xlink" xml:space="preserve" xmlns:serif="http://www.serif.com/" style="fill-rule:evenodd;clip-rule:evenodd;stroke-linejoin:round;stroke-miterlimit:2;">
    <g id="Layer-2" serif:id="Layer 2" transform="matrix(1,0,0,1,-158,-205)">
        <g transform="matrix(1,0,0,1,529.817,239.963)">
            <path d="M0,600.074C-1.434,599.49 -35.559,585.46 -77.588,556.916C-116.689,530.36 -170.563,485.504 -205.171,422.613C-239.3,360.595 -253.453,288.054 -259.316,238.121C-265.615,184.476 -264.032,145.325 -263.962,143.685L-263.269,127.532L10.182,-4.146L283.633,127.532L284.327,143.685C284.397,145.325 285.979,184.473 279.681,238.12C273.817,288.053 259.665,360.594 225.536,422.613C190.929,485.504 137.054,530.36 97.953,556.916C55.906,585.47 21.795,599.491 20.363,600.074L10.183,604.22L0,600.074Z" style="fill:rgb(33,37,41);fill-rule:nonzero;"/>
        </g>
        <g transform="matrix(1,0,0,1,797.16,534.484)">
            <path d="M0,-84.01C-0.65,-75.9 -1.49,-67.24 -2.56,-58.15C-8.27,-9.55 -21.99,60.97 -54.95,120.86C-71.43,150.81 -92.55,176.54 -114.25,198.01C-118.58,197.29 -122.89,196.62 -127.2,195.98C-134.21,194.97 -141.48,193.98 -148.74,193.05L-153.18,192.48C-154.32,192.34 -155.48,192.21 -156.63,192.08L-161.84,191.55C-170.9,190.65 -180.16,189.81 -189.33,189.07L-199.22,188.29L-208.25,187.88C-217.95,187.44 -227.18,187.1 -235.69,186.89L-246.78,186.6L-248.35,186.6C-250.72,186.6 -253.32,186.66 -256.08,186.77L-257.16,186.82L-258.26,186.77C-261,186.66 -263.6,186.6 -265.97,186.6L-267.85,186.6L-269.45,186.65L-278.58,186.89C-287.14,187.1 -296.38,187.44 -306.08,187.88L-315.42,188.31L-316.67,188.42L-325.07,189.07C-334.16,189.81 -343.42,190.65 -352.53,191.56L-357.8,192.09C-358.88,192.21 -360.02,192.34 -361.15,192.49L-365.62,193.05C-372.84,193.98 -380.12,194.97 -387.23,195.99C-391.5,196.62 -395.78,197.29 -400.07,198C-421.77,176.54 -442.89,150.81 -459.37,120.86C-492.33,60.97 -506.05,-9.55 -511.76,-58.15C-512.83,-67.24 -513.67,-75.9 -514.32,-84.01C-517.43,-122.69 -516.38,-148.88 -516.32,-150.19L-516.01,-157.37L-257.16,-282.02L1.69,-157.37L2,-150.19C2.06,-148.88 3.11,-122.69 0,-84.01" style="fill:rgb(0,178,214);fill-rule:nonzero;"/>
        </g>
        <g transform="matrix(1,0,0,1,682.91,816.574)">
            <path d="M0,-84.08C-21.99,-62.35 -44.58,-45 -63.57,-32.1C-104.32,-4.43 -137.01,9.01 -138.39,9.57L-142.91,11.41L-147.44,9.57C-148.81,9.01 -181.5,-4.43 -222.25,-32.1C-241.25,-45 -263.84,-62.35 -285.82,-84.09C-281.53,-84.8 -277.25,-85.47 -272.98,-86.1C-265.87,-87.12 -258.59,-88.11 -251.37,-89.04L-246.9,-89.6C-245.77,-89.75 -244.63,-89.88 -243.55,-90L-238.28,-90.53C-229.17,-91.44 -219.91,-92.28 -210.82,-93.02L-202.42,-93.67L-201.17,-93.78L-191.83,-94.21C-182.13,-94.65 -172.89,-94.99 -164.33,-95.2L-155.2,-95.44L-153.6,-95.49L-151.72,-95.49C-149.35,-95.49 -146.75,-95.43 -144.01,-95.32L-142.91,-95.27L-141.83,-95.32C-139.07,-95.43 -136.47,-95.49 -134.1,-95.49L-132.53,-95.49L-121.44,-95.2C-112.93,-94.99 -103.7,-94.65 -94,-94.21L-84.97,-93.8L-75.08,-93.02C-65.91,-92.28 -56.65,-91.44 -47.59,-90.54L-42.38,-90.01C-41.23,-89.88 -40.07,-89.75 -38.93,-89.61L-34.49,-89.04C-27.23,-88.11 -19.96,-87.12 -12.95,-86.11C-8.64,-85.47 -4.33,-84.8 0,-84.08" style="fill:rgb(0,178,214);fill-rule:nonzero;"/>
        </g>
        <g transform="matrix(1,0,0,1,787.169,696.007)">
            <path d="M0,-311.201L-247.17,-430.223L-494.339,-311.201C-494.339,-311.201 -500.865,-159.109 -438.868,-46.448C-376.872,66.212 -247.17,119.022 -247.17,119.022C-247.17,119.022 -117.467,66.212 -55.471,-46.448C6.526,-159.109 0,-311.201 0,-311.201" style="fill:rgb(33,37,41);fill-rule:nonzero;"/>
        </g>
        <g transform="matrix(1,0,0,1,540,293.058)">
            <path d="M0,295.139C-53.507,295.139 -102.293,273.946 -133.845,236.994C-160.781,205.45 -172.182,166.432 -165.948,127.127C-160.287,91.434 -139.769,58.82 -108.175,35.295C-77.609,12.534 -39.192,0 0,0C39.192,0 77.61,12.534 108.176,35.295C139.77,58.82 160.286,91.434 165.948,127.127C172.181,166.432 160.781,205.45 133.846,236.993C102.293,273.946 53.507,295.139 0,295.139" style="fill:rgb(0,178,214);fill-rule:nonzero;"/>
        </g>
        <g transform="matrix(1,0,0,1,540,305.275)">
            <path d="M0,270.707C-98.309,270.707 -166.447,196.039 -153.883,116.824C-143.082,48.729 -74.634,0 0,0C74.634,0 143.082,48.729 153.883,116.824C166.447,196.039 98.309,270.707 0,270.707" style="fill:rgb(2,119,145);fill-rule:nonzero;"/>
        </g>
        <g transform="matrix(1,0,0,1,540,335.68)">
            <path d="M0,191.57C-67.176,191.57 -116.18,141.711 -109.916,86.419C-104.293,36.784 -55.209,0 0,0C55.209,0 104.293,36.784 109.916,86.419C116.18,141.711 67.176,191.57 0,191.57" style="fill:rgb(190,30,45);fill-rule:nonzero;"/>
        </g>
        <g transform="matrix(0,-1,-1,0,536.648,359.5)">
            <path d="M-62.599,-69.301C-95.089,-71.509 -123.068,-42.044 -123.068,-3.351C-123.068,35.342 -95.089,64.807 -62.599,62.599C-32.149,60.529 -8.832,31.053 -8.832,-3.351C-8.832,-37.756 -32.149,-67.231 -62.599,-69.301" style="fill:rgb(236,212,22);fill-rule:nonzero;"/>
        </g>
        <g transform="matrix(1,0,0,1,337.79,562.684)">
            <path d="M0,92.66C16.48,122.61 37.6,148.34 59.3,169.8C43.85,172.31 28.28,175.24 12.87,178.53L10.48,179.08C0.95,181.23 -8.38,183.44 -17.28,185.64L-25.31,187.62L-26.36,187.92L-32.58,189.64C-41.68,192.16 -51.04,194.86 -60.41,197.65L-84.58,204.87L-152.33,167.29L-150.04,147.11L-130.31,-27.46L-102.4,-31.7C-91.62,-33.33 -80.99,-34.88 -70.8,-36.3L-61.94,-37.55L-54.95,-112.21C-54.3,-104.1 -53.46,-95.44 -52.39,-86.35C-46.68,-37.75 -32.96,32.77 0,92.66" style="fill:rgb(33,37,41);fill-rule:nonzero;"/>
        </g>
        <g transform="matrix(1,0,0,1,894.54,488.064)">
            <path d="M0,241.9L-67.75,279.49L-91.94,272.26C-101.25,269.49 -110.61,266.8 -119.75,264.26L-127.28,262.17L-135.02,260.27C-143.94,258.06 -153.26,255.85 -162.74,253.71L-165.19,253.15C-180.57,249.87 -196.15,246.94 -211.63,244.43C-189.93,222.96 -168.81,197.23 -152.33,167.28C-119.37,107.39 -105.65,36.87 -99.94,-11.73C-98.87,-20.82 -98.03,-29.48 -97.38,-37.59L-90.39,37.07L-81.52,38.32C-71.4,39.73 -60.77,41.28 -49.94,42.92L-22.02,47.16L-1.95,224.72L0,241.9Z" style="fill:rgb(33,37,41);fill-rule:nonzero;"/>
        </g>
        <g transform="matrix(1,0,0,1,806.893,410.192)">
            <path d="M0,335.76C-9.395,332.961 -18.852,330.241 -28.099,327.676L-35.833,325.532L-43.786,323.575C-52.772,321.35 -62.188,319.123 -71.785,316.952L-74.31,316.374C-94.347,312.097 -114.675,308.415 -134.73,305.432C-141.902,304.397 -149.264,303.395 -156.563,302.46L-161.035,301.894C-162.262,301.739 -163.509,301.593 -164.758,301.459L-170.058,300.919C-179.233,300.004 -188.59,299.159 -197.851,298.407L-208.022,297.613L-217.297,297.187C-227.064,296.74 -236.404,296.404 -245.056,296.191L-256.296,295.893C-256.891,295.89 -257.486,295.888 -258.083,295.888C-260.65,295.888 -263.461,295.951 -266.438,296.076L-266.894,296.095L-267.35,296.076C-270.327,295.951 -273.138,295.888 -275.704,295.888C-276.421,295.888 -277.135,295.891 -277.85,295.896L-279.641,295.95L-288.713,296.19C-297.383,296.404 -306.724,296.74 -316.495,297.187L-326.15,297.631L-327.574,297.755L-335.97,298.411C-345.195,299.159 -354.552,300.004 -363.751,300.921L-369.101,301.465C-370.278,301.593 -371.527,301.739 -372.764,301.895L-377.24,302.462C-384.529,303.396 -391.891,304.398 -399.106,305.439C-419.112,308.415 -439.439,312.097 -459.475,316.373L-461.976,316.946C-471.595,319.121 -481.009,321.348 -489.986,323.572L-498.266,325.609L-499.466,325.951L-505.688,327.676C-514.927,330.237 -524.383,332.958 -533.797,335.763L-551.925,341.181L-605.398,311.518L-604.237,301.295L-585.798,138.134L-569.25,135.625C-558.521,134.001 -547.95,132.46 -537.828,131.043L-512.93,127.547L-516.82,123.925L-506.796,16.888L-499.927,11.134C-494.383,6.457 -491.572,4.134 -486.03,-0.424L-479.97,-5.421L-53.818,-5.421L-47.748,-0.416C-42.216,4.134 -39.405,6.457 -33.831,11.159L-26.992,16.888L-16.968,123.924L-20.911,127.596L-9.788,129.101L4.044,131.043C14.154,132.459 24.725,134 35.459,135.624L52.01,138.134L70.787,304.273L71.611,311.517L18.137,341.181L0,335.76Z" style="fill:rgb(0,178,214);fill-rule:nonzero;"/>
        </g>
        <g transform="matrix(1,0,0,1,866.834,439.587)">
            <path d="M0,276.112L-43.08,300.01L-56.814,295.905C-66.192,293.11 -75.712,290.37 -85.123,287.761L-91.346,286.036L-91.357,285.981L-101.117,283.579C-110.462,281.265 -119.949,279.027 -129.316,276.909L-131.893,276.319C-150.245,272.4 -170.824,268.546 -193.063,265.238C-200.4,264.179 -207.791,263.175 -215.116,262.236L-219.603,261.668C-220.902,261.505 -222.213,261.352 -223.523,261.21L-228.894,260.664C-238.196,259.736 -247.628,258.884 -256.908,258.131L-265.304,257.476L-265.304,257.389C-265.707,257.356 -266.111,257.323 -266.526,257.301L-266.515,257.356L-276.734,256.887C-286.025,256.461 -295.446,256.111 -304.726,255.882L-313.799,255.642L-313.799,255.598C-315.218,255.587 -316.615,255.576 -318.024,255.576C-320.753,255.576 -323.701,255.642 -326.834,255.773C-329.967,255.642 -332.915,255.576 -335.644,255.576C-337.053,255.576 -338.45,255.587 -339.869,255.598L-339.869,255.642L-348.942,255.882C-358.221,256.111 -367.643,256.461 -376.934,256.887L-387.152,257.356L-387.142,257.301C-387.556,257.323 -387.96,257.356 -388.364,257.389L-388.364,257.476L-396.76,258.131C-406.04,258.884 -415.472,259.736 -424.774,260.664L-430.145,261.21C-431.455,261.352 -432.765,261.505 -434.065,261.668L-438.552,262.236C-445.877,263.175 -453.268,264.179 -460.605,265.238C-482.843,268.546 -503.423,272.4 -521.775,276.319L-524.351,276.909C-533.719,279.027 -543.206,281.265 -552.551,283.579L-562.311,285.981L-562.322,286.036L-568.545,287.761C-577.956,290.37 -587.476,293.11 -596.854,295.905L-610.588,300.01L-653.668,276.112L-653.329,273.132L-635.829,118.279L-627.553,117.024C-617.16,115.452 -606.625,113.912 -596.253,112.46L-582.421,110.517L-582.432,110.593L-578.283,110.069C-568.228,108.814 -557.966,107.58 -547.78,106.412L-549.287,105.047C-554.254,100.528 -556.634,98.333 -561.449,93.868L-565.39,90.2L-556.285,-7.02L-552.857,-9.891C-547.409,-14.487 -544.69,-16.736 -539.035,-21.387L-535.989,-23.898L-117.679,-23.898L-114.633,-21.387C-108.977,-16.736 -106.259,-14.487 -100.811,-9.891L-97.383,-7.02L-88.278,90.2L-92.219,93.868C-97.034,98.333 -99.414,100.528 -104.381,105.047L-105.888,106.412C-95.702,107.58 -85.44,108.814 -75.385,110.069L-71.236,110.593L-71.247,110.517L-57.414,112.46C-47.043,113.912 -36.508,115.452 -26.114,117.024L-17.839,118.279L-0.338,273.132L0,276.112Z" style="fill:rgb(33,37,41);fill-rule:nonzero;"/>
        </g>
        <g transform="matrix(1,0,0,1,798.009,487.159)">
            <path d="M0,152.82C1.517,168.052 3.049,183.447 4.598,199.009C-6.312,196.314 -17.192,193.743 -28.099,191.28C-31.856,149.552 -35.507,109.009 -39.057,69.602C-28.68,70.79 -18.305,72.033 -7.915,73.334C-6.05,92.06 -4.159,111.04 -2.244,130.28C5.043,131.625 8.686,132.322 15.972,133.767C13.918,114.143 11.891,94.789 9.892,75.699C20.283,77.158 30.674,78.673 41.081,80.246C45.944,123.244 50.957,167.59 56.127,213.351C45.178,210.083 34.258,206.942 23.313,203.91C21.65,188.023 20.006,172.308 18.378,156.764C11.028,155.13 7.352,154.341 0,152.82M-102.188,79.41C-101.091,95.477 -99.982,111.73 -98.86,128.173C-93.388,128.832 -90.652,129.176 -85.181,129.894C-83.479,128.463 -82.629,127.747 -80.931,126.315C-81.965,112.453 -82.988,98.726 -84.002,85.132C-85.913,83.328 -86.868,82.431 -88.776,80.645C-94.14,80.13 -96.823,79.883 -102.188,79.41M-134.352,61.379C-112.155,62.806 -89.963,64.552 -67.73,66.621C-61.993,72.012 -59.116,74.749 -53.343,80.316C-51.687,99.776 -50.008,119.51 -48.304,139.523C-53.36,143.816 -55.896,145.953 -60.986,150.218C-73.229,148.224 -85.476,146.423 -97.723,144.813C-96.958,156.018 -96.188,167.312 -95.411,178.695C-106.267,177.085 -117.094,175.592 -127.948,174.207C-130.141,135.589 -132.274,97.992 -134.352,61.379M-201.483,111.118C-200.929,129.815 -200.367,148.762 -199.797,167.965C-210.629,167.463 -221.432,167.074 -232.263,166.797C-232.893,129.569 -233.504,93.295 -234.099,57.937C-225.226,58.008 -220.789,58.069 -211.917,58.245C-204.931,68.488 -197.926,78.827 -190.909,89.269C-184.536,79.272 -178.224,69.337 -171.982,59.459C-163.106,59.823 -158.668,60.031 -149.793,60.499C-147.948,96.808 -146.053,134.083 -144.106,172.364C-154.947,171.273 -165.76,170.296 -176.599,169.429C-177.347,150.083 -178.084,130.996 -178.811,112.163C-183.151,117.182 -185.328,119.697 -189.698,124.747C-194.428,119.243 -196.785,116.519 -201.483,111.118M-329.416,59.62C-319.055,59.202 -308.703,58.84 -298.345,58.535C-298.632,87.58 -298.924,117.242 -299.221,147.541C-297.395,149.061 -296.481,149.823 -294.65,151.352C-290.963,151.21 -289.119,151.146 -285.432,151.035C-283.582,149.382 -282.659,148.558 -280.813,146.917C-280.739,116.7 -280.666,87.117 -280.593,58.148C-270.237,58.002 -259.889,57.912 -249.534,57.879C-249.205,89.366 -248.869,121.578 -248.523,154.543C-254.02,159.332 -256.778,161.748 -262.309,166.633C-280.883,166.916 -299.407,167.593 -317.978,168.667C-323.456,164.148 -326.186,161.906 -331.629,157.447C-330.875,124.077 -330.137,91.477 -329.416,59.62M-347.999,171.026C-360.396,172.184 -372.791,173.569 -385.176,175.182C-383.523,136.626 -381.913,99.089 -380.344,62.532C-368.496,61.69 -356.65,60.964 -344.807,60.351C-345.845,96.284 -346.908,133.163 -347.999,171.026M-445.762,84.504C-446.86,100.96 -447.972,117.611 -449.097,134.462C-443.613,133.596 -440.871,133.179 -435.388,132.375C-433.458,130.433 -432.494,129.467 -430.568,127.545C-429.734,113.733 -428.908,100.055 -428.09,86.51C-429.785,85.091 -430.632,84.381 -432.324,82.96C-437.699,83.555 -440.387,83.864 -445.762,84.504M-475.846,71.82C-453.564,69.13 -431.329,66.793 -409.087,64.798C-403.998,69.066 -401.445,71.195 -396.324,75.448C-397.162,92.604 -398.01,109.974 -398.869,127.561C-402.683,131.259 -404.594,133.127 -408.424,136.902C-404.93,139.734 -403.18,141.151 -399.671,143.986C-400.21,155.041 -400.754,166.182 -401.302,177.41C-412.176,179.062 -423.023,180.824 -433.899,182.707C-433.292,172.649 -432.689,162.662 -432.09,152.743C-433.829,151.339 -434.698,150.638 -436.433,149.233C-441.953,150.11 -444.713,150.565 -450.233,151.508C-451,162.984 -451.772,174.553 -452.55,186.216C-463.455,188.432 -474.332,190.76 -485.238,193.212C-482.017,151.585 -478.887,111.137 -475.846,71.82M-491.256,73.792C-492.023,83.104 -492.408,87.783 -493.182,97.187C-500.384,98.298 -503.986,98.874 -511.188,100.07C-514.102,133.205 -517.087,167.132 -520.145,201.881C-531.102,204.862 -542.031,207.956 -552.991,211.18C-549.485,175.127 -546.066,139.954 -542.731,105.631C-549.95,106.978 -553.56,107.673 -560.779,109.107C-559.745,98.976 -559.23,93.938 -558.207,83.913C-535.852,80.188 -513.553,76.82 -491.256,73.792M-85.33,-45.625C-83.394,-20.686 -81.421,4.726 -79.41,30.624C-74.153,30.965 -71.525,31.142 -66.269,31.509C-64.648,30.045 -63.838,29.312 -62.22,27.843C-64.194,4.245 -66.135,-18.948 -68.043,-41.748C-69.868,-43.271 -70.779,-44.029 -72.6,-45.539C-77.692,-45.575 -80.238,-45.593 -85.33,-45.625M-115.995,-60.219C-94.908,-60.319 -73.824,-60.423 -52.741,-60.531C-47.268,-56.029 -44.523,-53.747 -39.017,-49.114C-36.346,-20.604 -33.617,8.524 -30.83,38.293C-35.645,42.768 -38.06,44.988 -42.907,49.4C-64.978,47.415 -87.009,45.701 -109.036,44.255C-111.416,8.525 -113.735,-26.288 -115.995,-60.219M-159.19,-38.836C-159.607,-47.348 -159.815,-51.583 -160.228,-60.013C-150.385,-60.058 -140.543,-60.104 -130.701,-60.15C-128.654,-26.53 -126.554,7.956 -124.399,43.342C-134.683,42.792 -144.958,42.289 -155.235,41.833C-156.151,23.171 -157.053,4.761 -157.943,-13.402C-165.097,-19.307 -168.66,-22.219 -175.758,-27.983C-174.806,-5.324 -173.837,17.721 -172.852,41.164C-183.131,40.839 -193.402,40.562 -203.678,40.332C-204.688,6.122 -205.673,-27.246 -206.633,-59.802C-198.195,-59.84 -193.976,-59.859 -185.538,-59.898C-176.766,-52.951 -167.98,-45.935 -159.19,-38.836M-250.687,-42.365C-252.401,-43.745 -253.257,-44.434 -254.967,-45.811C-258.364,-45.795 -260.062,-45.787 -263.458,-45.77C-265.151,-44.376 -265.998,-43.679 -267.693,-42.282C-267.658,-30.083 -267.622,-17.77 -267.586,-5.344C-260.674,-5.395 -257.218,-5.412 -250.306,-5.431C-250.434,-17.856 -250.561,-30.166 -250.687,-42.365M-233.984,-59.676C-228.84,-55.579 -226.261,-53.523 -221.087,-49.39C-220.411,-20.222 -219.72,9.593 -219.012,40.079C-229.29,39.971 -239.561,39.91 -249.838,39.896C-249.945,29.489 -250.052,19.16 -250.158,8.909C-257.112,8.925 -260.589,8.943 -267.543,8.997C-267.513,19.249 -267.483,29.579 -267.452,39.987C-277.73,40.107 -288.003,40.274 -298.282,40.488C-297.979,9.988 -297.681,-19.842 -297.39,-49.024C-292.268,-53.209 -289.715,-55.29 -284.624,-59.437C-267.743,-59.519 -250.863,-59.598 -233.984,-59.676M-358.79,-44.952C-359.304,-30.698 -359.823,-16.29 -360.347,-1.726C-355.156,-1.894 -352.56,-1.973 -347.369,-2.123C-345.595,-3.627 -344.709,-4.377 -342.938,-5.872C-342.59,-17.896 -342.245,-29.813 -341.903,-41.624C-343.563,-43.014 -344.392,-43.709 -346.048,-45.101C-351.145,-45.044 -353.693,-45.014 -358.79,-44.952M-387.835,-58.89C-366.725,-59.012 -345.616,-59.128 -324.509,-59.238C-319.527,-55.104 -317.029,-53.041 -312.017,-48.917C-312.264,-33.771 -312.514,-18.452 -312.766,-2.956C-316.276,-0.009 -318.035,1.472 -321.559,4.451C-318.143,7.27 -316.431,8.681 -313.002,11.505C-313.16,21.233 -313.319,31.029 -313.48,40.897C-323.761,41.235 -334.038,41.621 -344.324,42.055C-344.071,33.328 -343.821,24.657 -343.571,16.04C-345.272,14.628 -346.121,13.922 -347.818,12.511C-353.042,12.692 -355.654,12.789 -360.878,12.993C-361.234,22.895 -361.593,32.868 -361.955,42.916C-372.242,43.485 -382.526,44.103 -392.82,44.771C-391.116,9.326 -389.455,-25.216 -387.835,-58.89M-404.367,-22.344C-414.372,-22.034 -424.379,-21.706 -434.39,-21.361C-433.9,-28.894 -433.655,-32.645 -433.169,-40.117C-434.773,-41.571 -435.574,-42.299 -437.175,-43.76C-440.575,-43.697 -442.275,-43.666 -445.675,-43.601C-447.481,-42.066 -448.385,-41.295 -450.194,-39.747C-451.824,-16.895 -453.483,6.352 -455.17,30.005C-453.53,31.454 -452.71,32.177 -451.066,33.62C-447.556,33.331 -445.801,33.19 -442.291,32.913C-440.432,31.199 -439.504,30.346 -437.648,28.649C-437.139,20.836 -436.886,16.946 -436.381,9.198C-439.857,9.403 -441.595,9.508 -445.071,9.723C-444.647,3.513 -444.436,0.418 -444.015,-5.75C-431.059,-6.372 -418.111,-6.949 -405.167,-7.48C-405.909,6.287 -406.657,20.195 -407.414,34.247C-412.942,39.231 -415.715,41.755 -421.276,46.878C-438.93,48.351 -456.587,49.998 -474.271,51.821C-479.186,47.473 -481.636,45.285 -486.519,40.874C-484.081,11.025 -481.696,-18.182 -479.363,-46.767C-473.901,-51.482 -471.179,-53.804 -465.75,-58.386C-448.855,-58.504 -431.962,-58.617 -415.07,-58.724C-410.251,-54.395 -407.835,-52.245 -402.987,-47.968C-403.444,-39.481 -403.904,-30.94 -404.367,-22.344" style="fill:rgb(246,237,200);fill-rule:nonzero;"/>
        </g>
        <g transform="matrix(1,0,0,1,481.776,600.329)">
            <path d="M0,50.543C-3.976,47.271 -6.545,45.165 -10.431,41.987L-9.604,2.363C-2.319,1.921 5.081,1.537 12.496,1.216L12.087,36.609L19.808,43.061L21.715,42.988C25.392,42.845 27.23,42.782 30.907,42.671L32.739,42.616L34.096,41.399C35.942,39.745 36.864,38.921 38.705,37.279L40.316,35.843L40.344,0.306C47.624,0.146 55.023,0.043 62.438,0L62.78,39.223C58.751,42.728 56.133,45.019 52.01,48.648C34.742,48.935 17.266,49.572 0,50.543" style="fill:rgb(225,214,171);fill-rule:nonzero;"/>
        </g>
        <g transform="matrix(1,0,0,1,322.091,661.281)">
            <path d="M0,-38.313C7.09,-39.969 14.515,-41.559 22.177,-43.062L21.561,-34.065L27.295,-34.971C32.819,-35.843 35.503,-36.252 40.971,-37.056L42.704,-37.31L43.947,-38.564C45.871,-40.504 46.831,-41.469 48.751,-43.389L50.107,-44.745L50.299,-48.022C57.438,-49.147 64.845,-50.217 72.419,-51.219L72.279,-48.446C69.331,-45.59 67.446,-43.749 64.107,-40.466L60.292,-36.716C60.292,-36.716 68.798,-29.806 71.237,-27.829L69.877,-0.889C62.376,0.268 54.822,1.489 47.32,2.758L48.873,-23.714L41.136,-29.953L38.988,-29.612C33.43,-28.731 30.714,-28.284 25.15,-27.335L21.054,-26.636L18.674,8.104C11.183,9.644 3.633,11.251 -3.875,12.906L0,-38.313Z" style="fill:rgb(225,214,171);fill-rule:nonzero;"/>
        </g>
        <g transform="matrix(1,0,0,1,848.37,620.064)">
            <path d="M0,73.676C-7.464,71.485 -14.98,69.334 -22.452,67.249L-27.475,20.026L-31.329,19.171C-38.73,17.529 -42.346,16.754 -49.753,15.224L-55.852,13.965L-51.375,59.737C-58.85,57.926 -66.374,56.156 -73.846,54.453L-78.843,0C-49.624,6.134 -25.092,13.36 -5.804,21.534L0,73.676Z" style="fill:rgb(225,214,171);fill-rule:nonzero;"/>
        </g>
        <g transform="matrix(-0.913046,0.407857,0.407857,0.913046,280.085,677.171)">
            <path d="M9.585,-39.713C2.209,-39.87 -5.927,-39.587 -14.705,-38.872L9.585,4.6C17.258,3.419 25.016,2.283 32.757,1.203L9.585,-39.713Z" style="fill:rgb(225,214,171);fill-rule:nonzero;"/>
        </g>
        <g transform="matrix(-0.880718,0.47364,0.47364,0.880718,454.388,645.643)">
            <path d="M11.94,-50.28C3.837,-46.974 -4.424,-43.483 -12.721,-39.864L11.94,2.813C20.33,-0.695 28.832,-4.119 37.324,-7.409L11.94,-50.28Z" style="fill:rgb(225,214,171);fill-rule:nonzero;"/>
        </g>
        <g transform="matrix(1,0,0,1,697.267,605.732)">
            <path d="M0,54.444C-7.5,53.361 -15.037,52.328 -22.512,51.355L-25.515,0C-18.105,0.701 -10.723,1.475 -3.47,2.312L-2.707,13.783L1.542,14.296C7.012,14.955 9.69,15.293 15.19,16.015L17.319,16.295L24.841,9.944L24.537,5.945C32.012,7.031 39.397,8.203 46.591,9.443L47.365,18.718C43.893,21.656 41.55,23.626 38.038,26.565C26.534,24.718 14.896,23.019 3.409,21.512L-2.241,20.771L0,54.444Z" style="fill:rgb(225,214,171);fill-rule:nonzero;"/>
        </g>
        <g transform="matrix(1,0,0,1,593.135,604.509)">
            <path d="M0,45.539C-7.503,45.217 -15.052,44.947 -22.546,44.732L-23.453,-4.092C-16.062,-3.999 -8.696,-3.845 -1.374,-3.632L0,45.539ZM55.561,49.631C48.06,48.903 40.516,48.225 33.03,47.607L31.018,-2.291C38.436,-1.89 45.797,-1.427 53.078,-0.902L55.561,49.631Z" style="fill:rgb(225,214,171);fill-rule:nonzero;"/>
        </g>
        <g transform="matrix(1,0,0,1,574.185,499.139)">
            <path d="M0,23.625C-7.089,23.561 -14.238,23.518 -21.352,23.499L-21.641,-0.351C-19.549,-0.356 -17.456,-0.359 -15.365,-0.359C-10.485,-0.359 -5.508,-0.343 -0.513,-0.313L0,23.625ZM-69.511,0.249C-62.517,0.091 -55.465,-0.037 -48.378,-0.134L-48.348,23.638C-55.469,23.731 -62.621,23.847 -69.706,23.984L-69.511,0.249Z" style="fill:rgb(225,214,171);fill-rule:nonzero;"/>
        </g>
        <g transform="matrix(0.74452,-0.6676,-0.6676,-0.74452,625.659,513.219)">
            <path d="M-11.049,-4.228C-16.192,0.67 -21.385,5.585 -26.557,10.449L-11.049,28.871C-5.881,24.083 -0.714,19.251 4.382,14.444L-11.049,-4.228Z" style="fill:rgb(225,214,171);fill-rule:nonzero;"/>
        </g>
        <g transform="matrix(1,0,0,1,459.165,526.061)">
            <path d="M0,-24.853L-0.371,-25.16C6.511,-25.46 13.462,-25.73 20.469,-25.967L21.141,-25.411L20.725,-2.279C13.623,-2.036 6.47,-1.768 -0.636,-1.479L0,-24.853ZM-47.938,-22.509C-40.995,-22.986 -33.937,-23.428 -26.78,-23.835L-27.673,-0.166C-34.785,0.237 -41.937,0.666 -49.033,1.114L-47.938,-22.509Z" style="fill:rgb(225,214,171);fill-rule:nonzero;"/>
        </g>
        <g transform="matrix(0.747818,-0.663904,-0.663904,-0.747818,674.204,515.106)">
            <path d="M-11.286,-4.287C-16.362,0.713 -21.472,5.716 -26.549,10.655L-11.286,29.712C-6.163,24.808 -1.074,19.888 3.913,15.017L-11.286,-4.287Z" style="fill:rgb(225,214,171);fill-rule:nonzero;"/>
        </g>
        <g transform="matrix(1,0,0,1,753.123,502.602)">
            <path d="M0,29.334C-19.834,27.568 -39.888,26.002 -59.711,24.671L-61.397,0C-54.262,0.43 -47.189,0.898 -40.269,1.398L-38.91,19.299L-34.563,19.582C-29.307,19.923 -26.68,20.1 -21.426,20.467L-19.402,20.609L-17.996,19.337C-16.37,17.866 -15.558,17.13 -13.936,15.654L-12.477,14.324L-13.394,3.568C-6.172,4.216 0.912,4.905 7.761,5.628L9.168,20.922C5.759,24.079 3.522,26.132 0,29.334" style="fill:rgb(225,214,171);fill-rule:nonzero;"/>
        </g>
        <g transform="matrix(1,0,0,1,325.654,505.41)">
            <path d="M0,28.918C-3.572,25.762 -5.84,23.739 -9.289,20.635L-8.258,7.725C-1.489,6.741 5.626,5.793 12.988,4.894L12.342,13.738L13.827,15.053C15.471,16.509 16.294,17.235 17.941,18.685L19.367,19.94L21.392,19.773C24.9,19.484 26.655,19.342 30.162,19.066L31.951,18.925L33.263,17.712C35.117,15.999 36.043,15.147 37.893,13.451L39.289,12.17L39.938,1.929C46.803,1.251 53.898,0.605 61.125,0L60.337,14.183C56.036,18.056 53.403,20.451 49.164,24.342C32.83,25.714 16.311,27.251 0,28.918" style="fill:rgb(225,214,171);fill-rule:nonzero;"/>
        </g>
        <g transform="matrix(1,0,0,1,584.101,753.92)">
            <path d="M0,-35.818C4.464,-35.491 6.694,-35.307 11.149,-34.896C12.748,-26.073 13.548,-21.661 15.148,-12.838C17.197,-12.649 18.222,-12.551 20.269,-12.345C18.529,-21.182 17.659,-25.6 15.92,-34.436C20.37,-33.989 22.593,-33.745 27.032,-33.214C29.098,-24.341 30.131,-19.905 32.197,-11.033C32.877,-10.951 33.217,-10.91 33.897,-10.827C34.484,-8.36 34.778,-7.127 35.365,-4.661C34.671,-4.745 34.325,-4.787 33.631,-4.87C34.205,-2.406 34.492,-1.174 35.066,1.291C30.12,0.699 27.644,0.427 22.685,-0.071C22.202,-2.526 21.961,-3.753 21.477,-6.208C14.523,-6.906 11.04,-7.208 4.065,-7.719C2.71,-17.085 1.355,-26.452 0,-35.818M-26.971,-31.104C-26.841,-28.672 -26.775,-27.456 -26.644,-25.023C-31.303,-25.149 -33.633,-25.19 -38.294,-25.229C-38.35,-28.632 -38.378,-30.333 -38.433,-33.736C-36.514,-35.178 -35.567,-35.895 -33.695,-37.323C-26.019,-37.198 -22.181,-37.074 -14.515,-36.701C-12.457,-35.147 -11.417,-34.365 -9.313,-32.793C-8.71,-27.428 -8.408,-24.746 -7.805,-19.382C-14.955,-17.364 -18.606,-16.305 -26.055,-14.078C-25.924,-11.645 -25.858,-10.429 -25.727,-7.997C-22.919,-7.921 -21.515,-7.876 -18.708,-7.77C-18.891,-10.204 -18.983,-11.421 -19.166,-13.854C-14.345,-13.672 -11.935,-13.558 -7.119,-13.286C-6.626,-8.897 -6.379,-6.702 -5.885,-2.314C-16.584,-2.83 -27.227,-3.174 -37.937,-3.352C-38.032,-9.186 -38.08,-12.102 -38.175,-17.936C-30.719,-20.306 -27.062,-21.434 -19.898,-23.591C-20.118,-26.512 -20.228,-27.972 -20.448,-30.893C-21.136,-31.404 -21.479,-31.659 -22.163,-32.168C-23.463,-32.214 -24.113,-32.235 -25.413,-32.274C-26.034,-31.807 -26.345,-31.573 -26.971,-31.104M-66.289,-30.893C-66.948,-22.13 -67.278,-17.749 -67.937,-8.987C-67.274,-8.526 -66.942,-8.296 -66.274,-7.834C-64.87,-7.883 -64.168,-7.906 -62.764,-7.947C-62.033,-8.455 -61.669,-8.708 -60.944,-9.213C-60.472,-17.969 -60.236,-22.348 -59.765,-31.104C-60.391,-31.573 -60.703,-31.807 -61.324,-32.274C-62.624,-32.235 -63.274,-32.214 -64.573,-32.168C-65.257,-31.659 -65.6,-31.404 -66.289,-30.893M-77.423,-32.792C-75.319,-34.365 -74.279,-35.147 -72.221,-36.701C-64.555,-37.074 -60.717,-37.198 -53.041,-37.323C-51.169,-35.895 -50.222,-35.178 -48.303,-33.736C-48.478,-23.041 -48.565,-17.693 -48.74,-6.998C-50.879,-5.523 -51.96,-4.78 -54.145,-3.287C-62.698,-3.148 -66.973,-3.009 -75.514,-2.595C-77.508,-3.953 -78.493,-4.628 -80.44,-5.971C-79.233,-16.7 -78.629,-22.064 -77.423,-32.792M-105.485,-28.135C-105.981,-25.679 -106.229,-24.451 -106.725,-21.995C-111.356,-21.517 -113.668,-21.257 -118.286,-20.691C-117.465,-24.144 -117.054,-25.87 -116.233,-29.323C-113.956,-31.038 -112.828,-31.89 -110.595,-33.584C-102.98,-34.454 -99.163,-34.827 -91.517,-35.448C-89.841,-34.136 -88.99,-33.477 -87.266,-32.153C-88.044,-26.778 -88.433,-24.09 -89.21,-18.715C-96.978,-15.728 -100.93,-14.176 -108.959,-10.943C-109.455,-8.487 -109.703,-7.259 -110.199,-4.803C-107.408,-5.091 -106.012,-5.227 -103.217,-5.485C-102.773,-7.936 -102.551,-9.161 -102.106,-11.612C-97.306,-12.055 -94.904,-12.254 -90.094,-12.605C-90.731,-8.207 -91.049,-6.008 -91.685,-1.611C-102.335,-0.74 -112.962,0.179 -123.568,1.505C-122.159,-4.414 -121.455,-7.374 -120.047,-13.292C-112.033,-16.668 -108.087,-18.291 -100.329,-21.417C-99.795,-24.357 -99.529,-25.828 -98.995,-28.769C-99.556,-29.199 -99.835,-29.414 -100.39,-29.843C-101.683,-29.72 -102.33,-29.657 -103.622,-29.527C-104.365,-28.971 -104.737,-28.693 -105.485,-28.135" style="fill:rgb(246,237,200);fill-rule:nonzero;"/>
        </g>
        <g transform="matrix(1,0,0,1,607.13,807.515)">
            <path d="M0,-35.47C-34.89,-13.23 -61.37,-2.34 -62.61,-1.84L-67.13,0L-71.66,-1.84C-72.89,-2.34 -99.37,-13.23 -134.26,-35.47C-99.19,-19.22 -74.26,-11.18 -72.91,-10.75L-67.13,-8.91L-61.36,-10.75C-60.01,-11.18 -35.07,-19.22 0,-35.47" style="fill:rgb(0,178,214);fill-rule:nonzero;"/>
        </g>
    </g>
</svg>
